<svg xmlns="http://www.w3.org/2000/svg" viewBox="0 0 150 276.73"><defs><style>.cls-1{fill:#5b3bab;}</style></defs><title>Asset 1</title><g id="Layer_2" data-name="Layer 2"><path class="cls-1" d="M54.28,49.33l0-9.49s10.7.95,12.83-3.32S63.89,8.77,61.76,5s-8-6.41-19.22-4.27A14.7,14.7,0,0,0,30.26,13s0,3.2,2.14,37.9C10,57.88,9.55,78.14,9.55,78.14L0,276.73H39.34L19.05,262.85l31-86.47-17.09-102H89.51C79.37,55.21,54.28,49.33,54.28,49.33Z"/><path class="cls-1" d="M85.23,106.77c-15.81-12.87-31.61.61-31.61.61S69.42,119.52,85.23,106.77Z"/><path class="cls-1" d="M109.8,174.78s-39.34-12-42.07,14.67c-2.83,27.72,46,87.28,46,87.28h36.66l-26.15-15.45Z"/><path class="cls-1" d="M124.49,74.42h-35l23,47s3.1,7.2-8,10.13c.64,6.57,1.42,13.35,2.17,19.54a28.82,28.82,0,0,1-10.27-2.28l-2.14,1.33c.33.18,6.33,3.4,12.47,3.4H107c1.49,12,2.84,21.27,2.84,21.27h32.37Z"/></g></svg>