<svg xmlns="http://www.w3.org/2000/svg" viewBox="0 0 408.86 276.73"><defs><style>.cls-1{fill:#5b3bab;}</style></defs><title>Asset 1</title><g id="Layer_2" data-name="Layer 2"><g id="Layer_1-2" data-name="Layer 1"><polygon class="cls-1" points="178.5 103.99 178.06 116.09 186.62 116.09 186.25 103.24 186.56 82.19 189.08 82.19 196.71 82.57 197.21 76.21 196.71 75.51 167.91 75.51 167.34 81.88 167.91 82.57 175.66 82.19 178.18 82.19 178.5 103.99"/><polygon class="cls-1" points="203.45 103.99 203.01 116.09 228.46 116.09 229.03 109.73 228.53 109.03 218.51 109.41 211.39 109.35 211.2 103.24 211.26 98.89 217.75 98.83 224.93 99.02 225.5 92.65 225 92.02 218.38 92.21 211.39 92.08 211.58 82.32 218.88 82.26 228.59 82.57 229.22 76.21 228.72 75.51 203.01 75.51 203.45 103.99"/><path class="cls-1" d="M259.4,110.8l1,5.29h8.69L256.69,75.51H246.55l-13.74,40.58h8.44l1.07-5.73L243.4,107l7-.19,7.94.19ZM251,100.53l-5.42-.13,5.55-16.88h.56l4.79,16.88Z"/><polygon class="cls-1" points="268.1 75.51 267.53 81.88 268.1 82.57 275.85 82.19 278.37 82.19 278.68 103.99 278.24 116.09 286.81 116.09 286.43 103.24 286.75 82.19 289.27 82.19 296.89 82.57 297.39 76.21 296.89 75.51 268.1 75.51"/><path class="cls-1" d="M328.55,78.66q-3.44-3.21-9.8-3.21l-15.56.06.44,28.48-.44,12.1h8.57l-.38-12.85v-.13h4a19.3,19.3,0,0,0,8.79-1.89A13.62,13.62,0,0,0,330,95.9a15.63,15.63,0,0,0,2-8Q332,81.88,328.55,78.66ZM317.31,96.87l-5.8-.25L311.76,82l4.29-.25a7.84,7.84,0,0,1,5.32,1.8,6.71,6.71,0,0,1,1.73,5.07Q323.1,95.24,317.31,96.87Z"/><path class="cls-1" d="M187.25,133.35l.07.12-.82,7.5a154.26,154.26,0,0,1-2.05,15.63,22.39,22.39,0,0,1-2.83,7.94,8.52,8.52,0,0,1-4.76,3.4l1.45,6.93,2.27-.06a9.3,9.3,0,0,0,6.3-3.5q2.38-3,4-9.7a160.34,160.34,0,0,0,2.93-19.13l.31-2.64h7.63l.31,22-.44,12.1h8.51l-.26-12.86.45-27.72Z"/><path class="cls-1" d="M234.45,133.22a17.15,17.15,0,0,0-7.75,1.7,13.11,13.11,0,0,0-5.33,4.73,12.67,12.67,0,0,0-1.92,6.93,11.92,11.92,0,0,0,2,6.81,14.4,14.4,0,0,0,5.89,4.85q-5.18,7.42-10.21,13.67l.13,1a27.16,27.16,0,0,0,8.38,1.7l.88-.7q4.41-7.56,7.43-13.61h6v.82l-.32,12.86h8.57l-.44-12.1.44-28.48Zm-.38,20.67a8.22,8.22,0,0,1-4.28-2.68,7.53,7.53,0,0,1-1.39-4.76,6.8,6.8,0,0,1,1.73-5,7.3,7.3,0,0,1,5-1.82l4.47.25.19,13.73Z"/><path class="cls-1" d="M264.57,133.35l.06.12-.82,7.5a154.26,154.26,0,0,1-2.05,15.63,22.39,22.39,0,0,1-2.83,7.94,8.52,8.52,0,0,1-4.76,3.4l1.45,6.93,2.27-.06a9.3,9.3,0,0,0,6.3-3.5q2.38-3,4-9.7a160.34,160.34,0,0,0,2.93-19.13l.31-2.64h7.63l.31,22-.44,12.1h8.51l-.25-12.86.44-27.72Z"/><path class="cls-1" d="M315,148.91h-8.38l.25-15.56h-8.64l.45,28.54-.45,12h12q8.19,0,12.76-3.69A12.44,12.44,0,0,0,327.57,160q0-5.35-3.18-8.22T315,148.91Zm2,16.82a7.41,7.41,0,0,1-4.56,2.27l-5.86-.31-.19-6.62.12-6,5.61-.13a6.57,6.57,0,0,1,4.79,1.61,6.11,6.11,0,0,1,1.64,4.57A6.69,6.69,0,0,1,317.08,165.73Z"/><path class="cls-1" d="M351,132.78q-9.19,0-14.21,5.55t-5,15.81q0,9.77,4.63,15.09t13.14,5.33q9.19,0,14.24-5.67t5-16.13q0-9.58-4.63-14.78T351,132.78ZM357.57,165c-1.52,2.12-3.95,3.18-7.31,3.18s-5.92-1.16-7.41-3.47-2.23-6.17-2.23-11.59q0-7.12,2.27-10.27t7.3-3.15q5.18,0,7.41,3.43t2.24,11.44Q359.84,161.76,357.57,165Z"/><path class="cls-1" d="M393.29,152.5l14.37-19.15h-9.2l-2.33,3.9-11.41,14.94.32-18.84h-8.63l.44,28.48-.44,12.1h8.5l-.31-12.86.12-8.06q6.43,10.08,14.69,21l1,.51a67.11,67.11,0,0,0,8.32-1.45l.13-1Q400,161.9,393.29,152.5Z"/><path class="cls-1" d="M169.93,55.22a14.64,14.64,0,0,0,1.73-4.94,84.49,84.49,0,0,0,1.19-9.18l.16-1.83h5.92L179,51.15,178.93,57h1.95l0-6,.08-13.33h-9.59l0,.08-.27,3a81.68,81.68,0,0,1-1,8.55,13.62,13.62,0,0,1-1.5,4.48,4.7,4.7,0,0,1-2.48,2l.39,1.63.7-.15A4.56,4.56,0,0,0,169.93,55.22Z"/><path class="cls-1" d="M195.61,57a9.2,9.2,0,0,0,5.76-1.58,5.33,5.33,0,0,0,2-4.46,4.75,4.75,0,0,0-1.52-3.78,6.47,6.47,0,0,0-4.4-1.33h-4.41l.08-8.18h-2l.07,13.48L191.17,57Zm-2.54-9.59,3.82,0a4.79,4.79,0,0,1,3.33,1,3.55,3.55,0,0,1,1.15,2.86q0,3.86-4.75,4.33l-3.55-.08L193,51Z"/><path class="cls-1" d="M215.44,57.07a10.6,10.6,0,0,0,5.94-1.38,4.61,4.61,0,0,0,2.05-4.07q0-3.93-4.49-4.68a4.62,4.62,0,0,0,3.12-4.67,4.05,4.05,0,0,0-1.52-3.41,6.76,6.76,0,0,0-4.25-1.19l-5.14,0,.08,13.44L211.15,57C212.06,57.05,213.49,57.07,215.44,57.07Zm-2.38-17.84h2.85a4.89,4.89,0,0,1,3.07.82A2.84,2.84,0,0,1,220,42.46a3.54,3.54,0,0,1-3.24,3.86L213,46.24ZM213,47.92l4.17-.08q4.33.46,4.33,3.7a3.43,3.43,0,0,1-1.54,3,7.76,7.76,0,0,1-4.39,1.05c-.83,0-1.67,0-2.53-.11L213,51Z"/><polygon class="cls-1" points="233.32 57 233.28 51 233.36 37.71 231.41 37.71 231.49 51.15 231.41 57 233.32 57"/><path class="cls-1" d="M247.54,57.07a10.6,10.6,0,0,0,5.94-1.38,4.59,4.59,0,0,0,2.05-4.07q0-3.93-4.48-4.68a4.62,4.62,0,0,0,3.12-4.67,4.08,4.08,0,0,0-1.52-3.41,6.78,6.78,0,0,0-4.25-1.19l-5.14,0,.08,13.44L243.26,57C244.17,57.05,245.59,57.07,247.54,57.07Zm-2.37-17.84H248a4.92,4.92,0,0,1,3.08.82,2.86,2.86,0,0,1,1,2.41,3.54,3.54,0,0,1-3.23,3.86l-3.78-.08Zm-.08,8.69,4.17-.08q4.32.46,4.32,3.7a3.41,3.41,0,0,1-1.54,3,7.7,7.7,0,0,1-4.38,1.05c-.83,0-1.68,0-2.53-.11l0-4.48V47.92Z"/><path class="cls-1" d="M270.26,57.19A10.74,10.74,0,0,0,276,55.52l.15-1.76-.27-.12a10,10,0,0,1-2.67,1.41,8.72,8.72,0,0,1-2.9.5,5.92,5.92,0,0,1-4.89-2.1,9.56,9.56,0,0,1-1.7-6.12q0-4,1.74-6.08a6.21,6.21,0,0,1,5-2.06,8.39,8.39,0,0,1,2.75.45,7.76,7.76,0,0,1,2.32,1.26l.31-.07.39-1.76a10.34,10.34,0,0,0-5.61-1.52A8.52,8.52,0,0,0,264,40.12c-1.56,1.72-2.33,4.16-2.33,7.33s.74,5.52,2.22,7.21A8,8,0,0,0,270.26,57.19Z"/><path class="cls-1" d="M288.69,57a9.2,9.2,0,0,0,5.76-1.58,5.33,5.33,0,0,0,2-4.46A4.75,4.75,0,0,0,295,47.18a6.47,6.47,0,0,0-4.4-1.33h-4.41l.08-8.18h-2l.07,13.48L284.25,57Zm-2.54-9.59,3.82,0a4.79,4.79,0,0,1,3.33,1,3.55,3.55,0,0,1,1.15,2.86q0,3.86-4.75,4.33l-3.55-.08,0-4.44Z"/><path class="cls-1" d="M316.35,57.27a6.6,6.6,0,0,0,1.75-.43l0-.27a124.23,124.23,0,0,1-9.27-9.82l8.77-9h-2.38l-1.33,1.6-7.24,7.4v.16q4.08,4.93,9.35,10.28Z"/><polygon class="cls-1" points="306.14 57 306.1 51 306.18 37.71 304.23 37.71 304.31 51.15 304.23 57 306.14 57"/><polygon class="cls-1" points="326.87 57 338.21 40.9 338.4 40.9 338.4 51.15 338.36 57 340.31 57 340.24 51 340.31 37.67 338.29 37.67 326.99 53.8 326.75 53.8 326.87 37.63 324.88 37.75 324.96 51.15 324.88 57 326.87 57"/><path class="cls-1" d="M354.73,34a5.91,5.91,0,0,0,3.16.8,6,6,0,0,0,3.19-.82A4.44,4.44,0,0,0,363,31.63l-1.05-.74h-.31a3.47,3.47,0,0,1-3.67,2.53q-3,0-3.66-2.53h-.35l-1.05.74A4.54,4.54,0,0,0,354.73,34Z"/><polygon class="cls-1" points="352.2 57 363.53 40.9 363.73 40.9 363.73 51.15 363.69 57 365.64 57 365.56 51 365.64 37.67 363.61 37.67 352.31 53.8 352.08 53.8 352.2 37.63 350.21 37.75 350.29 51.15 350.21 57 352.2 57"/><path class="cls-1" d="M54.28,49.33l0-9.49s10.7.95,12.83-3.32S63.89,8.77,61.76,5s-8-6.41-19.22-4.27A14.7,14.7,0,0,0,30.26,13s0,3.2,2.14,37.9C10,57.88,9.55,78.14,9.55,78.14L0,276.73H39.34L19.05,262.85l31-86.47-17.09-102H89.51C79.37,55.21,54.28,49.33,54.28,49.33Z"/><path class="cls-1" d="M85.23,106.77c-15.81-12.87-31.61.61-31.61.61S69.42,119.52,85.23,106.77Z"/><path class="cls-1" d="M109.8,174.78s-39.34-12-42.07,14.67c-2.83,27.72,46,87.28,46,87.28h36.66l-26.15-15.45Z"/><path class="cls-1" d="M124.49,74.42h-35l23,47s3.1,7.2-8,10.13c.64,6.57,1.42,13.35,2.17,19.54a28.82,28.82,0,0,1-10.27-2.28l-2.14,1.33c.33.18,6.33,3.4,12.47,3.4H107c1.49,12,2.84,21.27,2.84,21.27h32.37Z"/></g></g></svg>